# xmcd
#
# Track frame offsets: 
#        150
#        17674
#        30839
#        51285
#        71542
#        98713
#        121865
#        138792
#        155931
#        174876
#        192492
#        211292
#        251055
#        266658
#        288619
#
# Disc length: 4124 seconds
#
# Revision: 0
# Processed by: cddbd v1.5.2PL0 Copyright (c) Steve Scherf et al.
# Submitted via: ExactAudioCopyFreeDBPlugin 1.0
#
DISCID=d4101a0f
DTITLE=Paul Carrack - 2000-2020 The Independent Years
DYEAR=2020
DGENRE=Soul
TTITLE0=Don't Dream It's Over (Liverpool Philharmonic Hall, 2004)
TTITLE1=Raining In My Heart (The Brighton Centre, 2019)
TTITLE2=If I Should Fall Behind (Acoustic Trio, 2018)
TTITLE3=Running Out Of Time (Liverpool Philharmonic Hall, 2004)
TTITLE4=How Long (Symphony Hall, Birmingham, 2017)
TTITLE5=You Make Me Feel Good (The Brighton Centre, 2019)
TTITLE6=Come Rain Or Come Shine (London Palladium, 2014)
TTITLE7=These Days (The Brighton Centre, 2019)
TTITLE8=Together (Shepherd's Bush Empire, London, 2000)
TTITLE9=That's How I Feel (Preston Guild Hall, 2016)
TTITLE10=Sleep On It (Symphony Hall, Birmingham, 2017)
TTITLE11=Time Waits For No One (London Palladium, 2014)
TTITLE12=She Lived Down The Street (Liverpool Philharmonic Hall, 2004)
TTITLE13=Never Too Late (Buxton Opera House, 2004)
TTITLE14=Nothing To Lose (Liverpool Philharmonic Hall, 2004)
EXTD=
EXTT0=
EXTT1=
EXTT2=
EXTT3=
EXTT4=
EXTT5=
EXTT6=
EXTT7=
EXTT8=
EXTT9=
EXTT10=
EXTT11=
EXTT12=
EXTT13=
EXTT14=
PLAYORDER=
